{
  "accessors": [
    {
      "bufferView": 2,
      "componentType": 5126,
      "count": 65533,
      "max": [
        6.2197055816650391,
        7.9682722091674805,
        9.5375652313232422
      ],
      "min": [
        0,
        0,
        0.075695991516113281
      ],
      "type": "VEC3"
    },
    {
      "bufferView": 2,
      "byteOffset": 786396,
      "componentType": 5126,
      "count": 65533,
      "max": [
        0.99995893239974976,
        0.99997442960739136,
        0.99999523162841797
      ],
      "min": [
        -0.99996179342269897,
        -0.99990087747573853,
        -0.99996674060821533
      ],
      "type": "VEC3"
    },
    {
      "bufferView": 3,
      "componentType": 5126,
      "count": 65533,
      "max": [
        0.99999642372131348,
        0.99999356269836426,
        0.99999815225601196,
        1
      ],
      "min": [
        -0.99999624490737915,
        -0.99999439716339111,
        -0.99996596574783325,
        -1
      ],
      "type": "VEC4"
    },
    {
      "bufferView": 1,
      "componentType": 5126,
      "count": 65533,
      "max": [
        0.99933701753616333,
        0.99994802474975586
      ],
      "min": [
        -0.00039299999480135739,
        0.0031059999018907547
      ],
      "type": "VEC2"
    },
    {
      "bufferView": 0,
      "componentType": 5125,
      "count": 240216,
      "max": [
        65532
      ],
      "min": [
        0
      ],
      "type": "SCALAR"
    },
    {
      "bufferView": 2,
      "byteOffset": 1572792,
      "componentType": 5126,
      "count": 55286,
      "max": [
        7.6554794311523438,
        6.754429817199707,
        6.8943996429443359
      ],
      "min": [
        0.83986890316009521,
        0.50192165374755859,
        0
      ],
      "type": "VEC3"
    },
    {
      "bufferView": 2,
      "byteOffset": 2236224,
      "componentType": 5126,
      "count": 55286,
      "max": [
        0.99999326467514038,
        0.9999958872795105,
        0.99999970197677612
      ],
      "min": [
        -0.99984145164489746,
        -0.9997515082359314,
        -0.99999439716339111
      ],
      "type": "VEC3"
    },
    {
      "bufferView": 3,
      "byteOffset": 1048528,
      "componentType": 5126,
      "count": 55286,
      "max": [
        0.99999773502349854,
        0.99997931718826294,
        0.99993550777435303,
        1
      ],
      "min": [
        -0.99998587369918823,
        -0.99997520446777344,
        -0.99997782707214355,
        -1
      ],
      "type": "VEC4"
    },
    {
      "bufferView": 1,
      "byteOffset": 524264,
      "componentType": 5126,
      "count": 55286,
      "max": [
        0.99901098012924194,
        1.0007179975509644
      ],
      "min": [
        -0.00064599997131153941,
        0.0037750001065433025
      ],
      "type": "VEC2"
    },
    {
      "bufferView": 0,
      "byteOffset": 960864,
      "componentType": 5125,
      "count": 179481,
      "max": [
        55285
      ],
      "min": [
        0
      ],
      "type": "SCALAR"
    }
  ],
  "asset": {
    "extras": {
      "author": "TraianDumbrava (https://sketchfab.com/TraianDumbrava)",
      "license": "CC-BY-4.0 (http://creativecommons.org/licenses/by/4.0/)",
      "source": "https://sketchfab.com/models/b0f80fa5ac81440b80d75d8afcc55842",
      "title": "Static Nature V2"
    },
    "generator": "Sketchfab-3.18.7",
    "version": "2.0"
  },
  "bufferViews": [
    {
      "buffer": 0,
      "byteLength": 1678788,
      "byteOffset": 0,
      "name": "floatBufferViews",
      "target": 34963
    },
    {
      "buffer": 0,
      "byteLength": 966552,
      "byteOffset": 1678788,
      "byteStride": 8,
      "name": "floatBufferViews",
      "target": 34962
    },
    {
      "buffer": 0,
      "byteLength": 2899656,
      "byteOffset": 2645340,
      "byteStride": 12,
      "name": "floatBufferViews",
      "target": 34962
    },
    {
      "buffer": 0,
      "byteLength": 1933104,
      "byteOffset": 5544996,
      "byteStride": 16,
      "name": "floatBufferViews",
      "target": 34962
    }
  ],
  "buffers": [
    {
      "byteLength": 7478100,
      "uri": "scene.bin"
    }
  ],
  "extensionsUsed": [
    "KHR_materials_unlit"
  ],
  "images": [
    {
      "uri": "textures/natura_v2_baseColor.jpg"
    }
  ],
  "materials": [
    {
      "doubleSided": true,
      "emissiveFactor": [
        0,
        0,
        0
      ],
      "extensions": {
        "KHR_materials_unlit": {}
      },
      "name": "natura_v2",
      "pbrMetallicRoughness": {
        "baseColorFactor": [
          1,
          1,
          1,
          1
        ],
        "baseColorTexture": {
          "index": 0,
          "texCoord": 0
        },
        "metallicFactor": 0,
        "roughnessFactor": 1
      }
    }
  ],
  "meshes": [
    {
      "primitives": [
        {
          "attributes": {
            "NORMAL": 1,
            "POSITION": 0,
            "TANGENT": 2,
            "TEXCOORD_0": 3
          },
          "indices": 4,
          "material": 0,
          "mode": 4
        }
      ]
    },
    {
      "primitives": [
        {
          "attributes": {
            "NORMAL": 6,
            "POSITION": 5,
            "TANGENT": 7,
            "TEXCOORD_0": 8
          },
          "indices": 9,
          "material": 0,
          "mode": 4
        }
      ]
    }
  ],
  "nodes": [
    {
      "children": [
        1
      ],
      "name": "RootNode (gltf orientation matrix)",
      "rotation": [
        -0.70710678118654746,
        -0,
        -0,
        0.70710678118654757
      ]
    },
    {
      "children": [
        2
      ],
      "matrix": [
        0.11117495596408844,
        0,
        0.99380087852478027,
        0,
        -0.94418871402740479,
        -0.31201130151748657,
        0.10562492161989212,
        0,
        0.31007710099220276,
        -0.95007836818695068,
        -0.034687843173742294,
        0,
        -5.0401768684387207,
        -8.5775938034057617,
        -0.57591581344604492,
        1
      ],
      "name": "RootNode (model correction matrix)"
    },
    {
      "children": [
        3,
        4
      ],
      "matrix": [
        1,
        0,
        0,
        0,
        0,
        1,
        0,
        0,
        0,
        0,
        1,
        0,
        -2.4381558895111084,
        -10.596549987792969,
        -4.665733814239502,
        1
      ],
      "name": "natura_v2.obj.cleaner.gles"
    },
    {
      "mesh": 0,
      "name": ""
    },
    {
      "mesh": 1,
      "name": ""
    }
  ],
  "samplers": [
    {
      "magFilter": 9729,
      "minFilter": 9987,
      "wrapS": 10497,
      "wrapT": 10497
    }
  ],
  "scene": 0,
  "scenes": [
    {
      "name": "OSG_Scene",
      "nodes": [
        0
      ]
    }
  ],
  "textures": [
    {
      "sampler": 0,
      "source": 0
    }
  ]
}

